<mxfile host="65bd71144e">
    <diagram id="MsnhZNyxxgUfoKJGjb6B" name="Page-1">
        <mxGraphModel dx="381" dy="402" grid="1" gridSize="10" guides="1" tooltips="1" connect="1" arrows="1" fold="1" page="1" pageScale="1" pageWidth="850" pageHeight="1100" math="0" shadow="0">
            <root>
                <mxCell id="0"/>
                <mxCell id="1" parent="0"/>
                <mxCell id="2" value="&lt;font style=&quot;font-size: 14px;&quot;&gt;&lt;b&gt;Classe = &lt;/b&gt;Objeto&lt;/font&gt;" style="rounded=0;whiteSpace=wrap;html=1;fillColor=#1ba1e2;fontColor=#ffffff;strokeColor=#006EAF;" parent="1" vertex="1">
                    <mxGeometry x="20" y="200" width="120" height="60" as="geometry"/>
                </mxCell>
                <mxCell id="5" value="" style="endArrow=none;html=1;strokeWidth=3;fontSize=14;entryX=0.5;entryY=1;entryDx=0;entryDy=0;fillColor=#1ba1e2;strokeColor=#006EAF;" parent="1" target="2" edge="1">
                    <mxGeometry width="50" height="50" relative="1" as="geometry">
                        <mxPoint x="80" y="500" as="sourcePoint"/>
                        <mxPoint x="220" y="320" as="targetPoint"/>
                    </mxGeometry>
                </mxCell>
                <mxCell id="6" value="" style="endArrow=classic;html=1;strokeWidth=3;fontSize=14;fillColor=#1ba1e2;strokeColor=#006EAF;" parent="1" edge="1">
                    <mxGeometry width="50" height="50" relative="1" as="geometry">
                        <mxPoint x="80" y="360" as="sourcePoint"/>
                        <mxPoint x="120" y="360" as="targetPoint"/>
                    </mxGeometry>
                </mxCell>
                <mxCell id="7" value="" style="endArrow=classic;html=1;strokeWidth=3;fontSize=14;fillColor=#1ba1e2;strokeColor=#006EAF;" parent="1" edge="1">
                    <mxGeometry width="50" height="50" relative="1" as="geometry">
                        <mxPoint x="80" y="500" as="sourcePoint"/>
                        <mxPoint x="120" y="500" as="targetPoint"/>
                    </mxGeometry>
                </mxCell>
                <mxCell id="8" value="&lt;font style=&quot;font-size: 14px;&quot;&gt;&lt;b&gt;Métodos: &lt;/b&gt;O que aquele Objeto consegue fazer?&lt;/font&gt;" style="rounded=0;whiteSpace=wrap;html=1;fillColor=#1ba1e2;fontColor=#ffffff;strokeColor=#006EAF;" parent="1" vertex="1">
                    <mxGeometry x="120" y="310" width="170" height="100" as="geometry"/>
                </mxCell>
                <mxCell id="10" value="&lt;b style=&quot;font-size: 14px;&quot;&gt;Atributos: &lt;/b&gt;&lt;span style=&quot;font-size: 14px;&quot;&gt;Quais são as informações/propriedades&amp;nbsp;&lt;br&gt;desse Objeto&lt;br&gt;&lt;/span&gt;" style="rounded=0;whiteSpace=wrap;html=1;fillColor=#1ba1e2;fontColor=#ffffff;strokeColor=#006EAF;" parent="1" vertex="1">
                    <mxGeometry x="120" y="450" width="190" height="100" as="geometry"/>
                </mxCell>
            </root>
        </mxGraphModel>
    </diagram>
</mxfile>
